/* XPM */
static const char * Open24_xpm[] = {
"24 24 65 1",
" 	c None",
".	c #FFFFFF",
"+	c #FFE7CD",
"@	c #FFE6CD",
"#	c #FFE6CC",
"$	c #FEE5CB",
"%	c #FDE4CB",
"&	c #FCE3CA",
"*	c #FBE2CA",
"=	c #FAE1C9",
"-	c #F8E0C8",
";	c #F6DEC7",
">	c #F3DBC5",
",	c #F0DAC3",
"'	c #EFD8C2",
")	c #EDD7C1",
"!	c #EBD5C0",
"~	c #E8D4BF",
"{	c #E4D0BC",
"]	c #E2CEBB",
"^	c #E0CDB9",
"/	c #DECBB8",
"(	c #DAC8B6",
"_	c #D7C6B4",
":	c #D5C4B3",
"<	c #D3C2B2",
"[	c #D1C1B1",
"}	c #D0C0B0",
"|	c #CCBDAE",
"1	c #CCB49A",
"2	c #CCB39A",
"3	c #CCB399",
"4	c #CCB299",
"5	c #CBB299",
"6	c #CAB198",
"7	c #C8B097",
"8	c #C7AE96",
"9	c #C5AD95",
"0	c #C3AB94",
"a	c #BEA891",
"b	c #BCA690",
"c	c #BAA48F",
"d	c #B8A28E",
"e	c #B8A28D",
"f	c #B7A28D",
"g	c #B6A18C",
"h	c #B29D8A",
"i	c #AF9B89",
"j	c #AE9A87",
"k	c #AC9986",
"l	c #AA9785",
"m	c #A29180",
"n	c #A0907F",
"o	c #9E8E7E",
"p	c #9D8D7D",
"q	c #998A7B",
"r	c #663333",
"s	c #000000",
"t	c #C0C0C0",
"u	c #000000",
"v	c #000000",
"w	c #000000",
"x	c #000000",
"y	c #000000",
"z	c #000000",
"                        ",
"                        ",
"                        ",
"                        ",
"                        ",
"                        ",
"              rrrrrrr   ",
"             rrrrrrrr.  ",
"     ssssssss.......s.  ",
"    s.........+1+f(os.  ",
"    s.o|o(c+1+1+f(o|s.  ",
"  ssssssssssssssso|os.  ",
" s...............so|s.  ",
" s.o|o|m{a+1+1+8{s|os.  ",
"  s|o|n]b+1+1+8)l_s|s.  ",
"  s.|o]c+1+1+8)j|osos.  ",
"   so/f+1+1+7'j_o|oss.  ",
"   s.f;7+1+1;i_o|o|ss.  ",
"    s;1+1+1;j_o|o|o|s.  ",
"    sssssssssssssssss.  ",
"     .................  ",
"                        ",
"                        ",
"                        "};
