/* XPM */
static const char * About24_xpm[] = {
"24 24 129 2",
"  	c None",
". 	c #000000",
"+ 	c #FFFFFF",
"@ 	c #D1D0E2",
"# 	c #CFCEE0",
"$ 	c #DEDDEF",
"% 	c #BAB9D0",
"& 	c #B9B8CE",
"* 	c #C6C5DB",
"= 	c #BDBCD1",
"- 	c #BCBBD0",
"; 	c #BBBACF",
"> 	c #CAC9DE",
", 	c #C9C8DD",
"' 	c #C8C7DC",
") 	c #C7C6DA",
"! 	c #D4D3E7",
"~ 	c #616191",
"{ 	c #6E6E9E",
"] 	c #808095",
"^ 	c #9090A6",
"/ 	c #9898AE",
"( 	c #9D9DB3",
"_ 	c #A5A5BB",
": 	c #A2A2B7",
"< 	c #4D4D57",
"[ 	c #B2B2C8",
"} 	c #B1B1C7",
"| 	c #B0B0C6",
"1 	c #AEAEC4",
"2 	c #B6B6CC",
"3 	c #B5B5CB",
"4 	c #B2B2C7",
"5 	c #B1B1C6",
"6 	c #AFAFC4",
"7 	c #A5A5B9",
"8 	c #C1C1D7",
"9 	c #BEBED4",
"0 	c #BDBDD3",
"a 	c #BBBBD1",
"b 	c #B8B8CD",
"c 	c #B7B7CC",
"d 	c #B5B5CA",
"e 	c #C3C3D9",
"f 	c #C2C2D7",
"g 	c #BFBFD4",
"h 	c #BEBED3",
"i 	c #BDBDD2",
"j 	c #B2B2C6",
"k 	c #D2D2E8",
"l 	c #CECEE4",
"m 	c #C5C5DA",
"n 	c #C4C4D9",
"o 	c #BFBFD3",
"p 	c #BDBDD1",
"q 	c #CCCCE1",
"r 	c #CBCBE0",
"s 	c #CACADE",
"t 	c #C2C2D6",
"u 	c #D3D3E7",
"v 	c #CFCFE3",
"w 	c #CECEE2",
"x 	c #CCCCE0",
"y 	c #C8C8DB",
"z 	c #C5C5D8",
"A 	c #C4C4D7",
"B 	c #C3C3D6",
"C 	c #D2D2E5",
"D 	c #D1D1E4",
"E 	c #D0D0E3",
"F 	c #C9C9DB",
"G 	c #C6C6D8",
"H 	c #E0E0F4",
"I 	c #D9D9EC",
"J 	c #D5D5E8",
"K 	c #D3D3E5",
"L 	c #CCCCDE",
"M 	c #CACADC",
"N 	c #E6E6F9",
"O 	c #D9D9EB",
"P 	c #D7D7E9",
"Q 	c #D6D6E8",
"R 	c #D1D1E2",
"S 	c #D0D0E1",
"T 	c #CFCFE0",
"U 	c #CECEDF",
"V 	c #CCCCDD",
"W 	c #CBCBDC",
"X 	c #EDEDFF",
"Y 	c #DEDEEF",
"Z 	c #DDDDEE",
"` 	c #DCDCED",
" .	c #DBDBEC",
"..	c #D9D9EA",
"+.	c #D8D8E9",
"@.	c #F1F1FF",
"#.	c #E4E4F2",
"$.	c #B2B3C9",
"%.	c #BFC0D6",
"&.	c #B6B7C8",
"*.	c #C3C4D5",
"=.	c #CBCCDD",
"-.	c #D8D9EA",
";.	c #F2F2F2",
">.	c #D9D9D9",
",.	c #CCCCCC",
"'.	c #8E8E8E",
").	c #858585",
"!.	c #0D0D0D",
"~.	c #C0C0C0",
"{.	c #000000",
"].	c #000000",
"^.	c #000000",
"/.	c #000000",
"(.	c #000000",
"_.	c #000000",
":.	c #000000",
"<.	c #000000",
"[.	c #000000",
"}.	c #000000",
"|.	c #000000",
"1.	c #000000",
"2.	c #000000",
"3.	c #000000",
"4.	c #000000",
"5.	c #000000",
"6.	c #000000",
"7.	c #000000",
"8.	c #000000",
"                                                ",
"                                                ",
"              . !.. !.. !.. !.. ( '.+           ",
"          !.. K G K G K G K G K ^ < . +         ",
"        !.u H ; @.#.X I N u H q % / _ . + ,.    ",
"      !.4 0 ; ! U  .R { ~ C z x b k / _ . +     ",
"    !.u g ; ' )  .U Y ~ { z C o m b k / !.;.>.  ",
"    . H | ' ; w y J # $ @ ..V D h r c _ / !.;.  ",
"    !.u 0 d f - v t Q ~ { S Z W E B s 2 e . +   ",
"    . H | f d , t v F { ~ Z S +.B E p e 2 !.;.  ",
"    !.u ' | 0 3 > = E ~ { S Z S P M E : 6 . +   ",
"      !.8 0 | h 2 e i { ~ -.=.Z T ` F 6 : !.;.  ",
"      . l | 0 5 e 2 { ~ { ~ -.S ` T Q : !.;.    ",
"        . l | 0 } 9 c r h D A O &.*.: ] ).+     ",
"          . !.1 9 } n h r A D L *.&.!.).+       ",
"              !.1 a [ * & j 7 !.. !.;.+         ",
"                !.. a $.%.. !.;.+ ;.            ",
"                  !.1 %.. + ;.                  ",
"                !.1 a . +                       ",
"                . a . +                         ",
"              . a . +                           ",
"            . a . +                             ",
"          . a ,.+                               ",
"          + ;.+                                 "};
