/* XPM */
static const char * Help24_xpm[] = {
"24 24 257 2",
"  	c None",
". 	c #FFFFFF",
"+ 	c #C0C0C0",
"@ 	c #C7E0C8",
"# 	c #C5DEC6",
"$ 	c #C0D8C1",
"% 	c #BED5BF",
"& 	c #D5E7D6",
"* 	c #336134",
"= 	c #366437",
"- 	c #759776",
"; 	c #739474",
"> 	c #9FCBA0",
", 	c #9DC89E",
"' 	c #99C39A",
") 	c #8DB48E",
"! 	c #8CB38D",
"~ 	c #8AB08B",
"{ 	c #87AC88",
"] 	c #83A784",
"^ 	c #7B9D7C",
"/ 	c #789979",
"( 	c #9FCAA0",
"_ 	c #99C29A",
": 	c #94BC95",
"< 	c #89AE8A",
"[ 	c #80A381",
"} 	c #97BF98",
"| 	c #97BE98",
"1 	c #D1F8D2",
"2 	c #D8FFD9",
"3 	c #BFE2C0",
"4 	c #B1D0B2",
"5 	c #B8D8B9",
"6 	c #B6D5B7",
"7 	c #B4D3B5",
"8 	c #AFCDB0",
"9 	c #B8D7B9",
"0 	c #A9C4AA",
"a 	c #E0FFE1",
"b 	c #C7E1C8",
"c 	c #2F5C2F",
"d 	c #305D30",
"e 	c #315E31",
"f 	c #336133",
"g 	c #336033",
"h 	c #346134",
"i 	c #366436",
"j 	c #386738",
"k 	c #376537",
"l 	c #366336",
"m 	c #386638",
"n 	c #376437",
"o 	c #396739",
"p 	c #759775",
"q 	c #759675",
"r 	c #9FCB9F",
"s 	c #99C399",
"t 	c #8DB48D",
"u 	c #86AB86",
"v 	c #83A783",
"w 	c #7C9E7C",
"x 	c #7B9D7B",
"y 	c #769776",
"z 	c #749474",
"A 	c #A0CBA0",
"B 	c #9FCA9F",
"C 	c #9EC99E",
"D 	c #9CC69C",
"E 	c #9BC59B",
"F 	c #99C299",
"G 	c #95BD95",
"H 	c #94BC94",
"I 	c #91B891",
"J 	c #8EB48E",
"K 	c #8DB38D",
"L 	c #89AE89",
"M 	c #86AA86",
"N 	c #81A481",
"O 	c #80A380",
"P 	c #7EA07E",
"Q 	c #799A79",
"R 	c #739273",
"S 	c #9EC89E",
"T 	c #9CC59C",
"U 	c #9AC39A",
"V 	c #99C199",
"W 	c #97BF97",
"X 	c #8DB28D",
"Y 	c #8BB08B",
"Z 	c #88AC88",
"` 	c #84A784",
" .	c #81A381",
"..	c #80A280",
"+.	c #7C9D7C",
"@.	c #799979",
"#.	c #97BE97",
"$.	c #96BD96",
"%.	c #8AAE8A",
"&.	c #7C9C7C",
"*.	c #D8FFD8",
"=.	c #D5FCD5",
"-.	c #D2F8D2",
";.	c #D0F5D0",
">.	c #CDF1CD",
",.	c #CAEECA",
"'.	c #C8EBC8",
").	c #C2E4C2",
"!.	c #BFE1BF",
"~.	c #C5E7C5",
"{.	c #BBDBBB",
"].	c #B8D8B8",
"^.	c #B7D6B7",
"/.	c #B6D5B6",
"(.	c #BEDEBE",
"_.	c #BBDABB",
":.	c #B9D8B9",
"<.	c #B6D4B6",
"[.	c #B5D3B5",
"}.	c #B3D1B3",
"|.	c #ABC7AB",
"1.	c #A7C2A7",
"2.	c #DEFFDE",
"3.	c #E1FFE1",
"4.	c #C8E1C8",
"5.	c #C7E0C7",
"6.	c #C5DEC5",
"7.	c #C8E0C8",
"8.	c #C7DFC7",
"9.	c #C4DCC4",
"0.	c #C1D8C1",
"a.	c #BAD0BA",
"b.	c #BFD5BF",
"c.	c #BED3BE",
"d.	c #BCD1BC",
"e.	c #D2E3D2",
"f.	c #D1E2D1",
"g.	c #D7E8D7",
"h.	c #D6E7D6",
"i.	c #D5E6D5",
"j.	c #CFDFCF",
"k.	c #CEDDCE",
"l.	c #CDDCCD",
"m.	c #CCDACC",
"n.	c #325F31",
"o.	c #346133",
"p.	c #9EC99D",
"q.	c #9AC399",
"r.	c #8DB38C",
"s.	c #8BB08A",
"t.	c #84A783",
"u.	c #80A27F",
"v.	c #7D9E7C",
"w.	c #799978",
"x.	c #A0CA9F",
"y.	c #9CC59B",
"z.	c #9AC299",
"A.	c #96BD95",
"B.	c #95BC94",
"C.	c #8AAE89",
"D.	c #7FA07E",
"E.	c #7C9C7B",
"F.	c #98BF97",
"G.	c #D0F5CF",
"H.	c #C8EBC7",
"I.	c #C5E8C4",
"J.	c #CBEECA",
"K.	c #BEDEBD",
"L.	c #DCFFDB",
"M.	c #DFFFDE",
"N.	c #739172",
"O.	c #B9D8B8",
"P.	c #B9D7B8",
"Q.	c #AAC4A9",
"R.	c #C8E1C7",
"S.	c #BED3BD",
"T.	c #D6E7D5",
"U.	c #0D0D0D",
"V.	c #000000",
"W.	c #000000",
"X.	c #000000",
"Y.	c #000000",
"Z.	c #000000",
"`.	c #000000",
" +	c #000000",
".+	c #000000",
"++	c #000000",
"@+	c #000000",
"#+	c #000000",
"$+	c #000000",
"%+	c #000000",
"&+	c #000000",
"*+	c #000000",
"=+	c #000000",
"-+	c #000000",
";+	c #000000",
">+	c #000000",
",+	c #000000",
"'+	c #000000",
")+	c #000000",
"!+	c #000000",
"~+	c #000000",
"{+	c #000000",
"]+	c #000000",
"^+	c #000000",
"/+	c #000000",
"(+	c #000000",
"_+	c #000000",
":+	c #000000",
"<+	c #000000",
"[+	c #000000",
"}+	c #000000",
"|+	c #000000",
"1+	c #000000",
"2+	c #000000",
"3+	c #000000",
"4+	c #000000",
"5+	c #000000",
"6+	c #000000",
"7+	c #000000",
"8+	c #000000",
"9+	c #000000",
"0+	c #000000",
"a+	c #000000",
"b+	c #000000",
"c+	c #000000",
"d+	c #000000",
"e+	c #000000",
"f+	c #000000",
"g+	c #000000",
"h+	c #000000",
"i+	c #000000",
"j+	c #000000",
"k+	c #000000",
"l+	c #000000",
"m+	c #000000",
"n+	c #000000",
"o+	c #000000",
"p+	c #000000",
"q+	c #000000",
"r+	c #000000",
"s+	c #000000",
"t+	c #000000",
"u+	c #000000",
"v+	c #000000",
"w+	c #000000",
"x+	c #000000",
"y+	c #000000",
"z+	c #000000",
"A+	c #000000",
"B+	c #000000",
"C+	c #000000",
"D+	c #000000",
"E+	c #000000",
"F+	c #000000",
"G+	c #000000",
"H+	c #000000",
"                                                ",
"  U.U.U.U.U.U.U.U.U.U.U.U.U.U.U.U.U.U.U.U.U.    ",
"  U.}.[./.5 {.K.3 ).~.H.,.>.G.-.=.*.L.M.3.U..   ",
"  U.7 N.z p @.x D. .d e n.d.c.I : } z.y.S U..   ",
"  U.6 ; y w.E.P c d l.k.j.f h $ | F D , B U..   ",
"  U.].y / ^ P c m.l.1.0 |.f.e.i 9.D p.r A U..   ",
"  U._.w.&.P N d l.1.g h h 8 4 k # S B A A U..   ",
"  U.(.x P [ d l.1.g S.I : = i.<.j b A ( S U..   ",
"  U.!.P N ` e k.Q.* b.B.F.k h.^.o 4.x.C D U..   ",
"  U.).N ` u a.g o.% H F.F m g.9 o 7.S E V U..   ",
"  U.I.` M Z Y c.b.: F.q.m g.5 o @ C T V G U..   ",
"  U.'.M { Y J I H W F m g.P.:.o 5.E V A.I U..   ",
"  U.J.Z ~ t I : W _ m g.].O.o 5.D V G I K U..   ",
"  U.>.s.J I H } U m g.9 :.o 8.E V G I r.L U..   ",
"  U.;.) I B.} s D o o o o 5.E V G I K < u U..   ",
"  U.1 I : W z.T C B 4.R.8.y.F G I K L u ] U..   ",
"  U.=.H #.' D C B A o o 6.V $.I K L u v u.U..   ",
"  U.2 W s D S B A o g.T.n 0.I ! %.u ` O w U..   ",
"  U.L.F D S B A A o & }.l b.K L u t.O v.@.U..   ",
"  U.2.y.S > A ( S # n l b.K C.u ` ..+.Q q U..   ",
"  U.a S ( A > S D V 0.b.X < u ] ..v.Q - R U..   ",
"  U.U.U.U.U.U.U.U.U.U.U.U.U.U.U.U.U.U.U.U.U..   ",
"    . . . . . . . . . . . . . . . . . . . . .   ",
"                                                "};
