/* XPM */
static const char * New24_xpm[] = {
"24 24 129 2",
"  	c None",
". 	c #000000",
"+ 	c #FFFFFF",
"@ 	c #C0C0C0",
"# 	c #CECBF0",
"$ 	c #CCC9EE",
"% 	c #D7D4F9",
"& 	c #DAD7FC",
"* 	c #C9C7EB",
"= 	c #C7C5E9",
"- 	c #CECCF0",
"; 	c #CDCBEF",
"> 	c #CCCAEE",
", 	c #DBD9FD",
"' 	c #DAD8FC",
") 	c #D8D6FA",
"! 	c #BCBAE1",
"~ 	c #C2C0E6",
"{ 	c #BFBDE3",
"] 	c #C5C3E9",
"^ 	c #CFCDF3",
"/ 	c #CECCF2",
"( 	c #C8C6EB",
"_ 	c #C7C5EA",
": 	c #C6C4E9",
"< 	c #CDCBF0",
"[ 	c #CCCAEF",
"} 	c #CBC9EE",
"| 	c #CAC8ED",
"1 	c #D5D3F8",
"2 	c #D3D1F6",
"3 	c #D9D7FC",
"4 	c #D8D6FB",
"5 	c #D7D5FA",
"6 	c #B6B5DC",
"7 	c #BCBBE2",
"8 	c #BAB9E0",
"9 	c #B9B8DF",
"0 	c #C4C3EB",
"a 	c #C2C1E8",
"b 	c #BDBCE3",
"c 	c #C5C4EB",
"d 	c #C0BFE5",
"e 	c #CAC9F0",
"f 	c #C9C8EF",
"g 	c #C8C7ED",
"h 	c #C4C3E9",
"i 	c #CECDF3",
"j 	c #C5C4E9",
"k 	c #D1D0F6",
"l 	c #CCCBF0",
"m 	c #C9C8EC",
"n 	c #C8C7EB",
"o 	c #D5D4F9",
"p 	c #D2D1F6",
"q 	c #D0CFF4",
"r 	c #CDCCF0",
"s 	c #CAC9ED",
"t 	c #D6D5F9",
"u 	c #DAD9FD",
"v 	c #D8D7FB",
"w 	c #D7D6FA",
"x 	c #DAD9FC",
"y 	c #D7D6F9",
"z 	c #9E9EC8",
"A 	c #A8A8D2",
"B 	c #C3C3F2",
"C 	c #AFAFD9",
"D 	c #B2B2DC",
"E 	c #ADADD5",
"F 	c #B8B8E1",
"G 	c #B7B7E0",
"H 	c #B2B2DA",
"I 	c #B1B1D8",
"J 	c #AFAFD6",
"K 	c #B4B4DB",
"L 	c #B3B3DA",
"M 	c #BEBEE6",
"N 	c #B8B8DF",
"O 	c #B7B7DD",
"P 	c #C0C0E7",
"Q 	c #BFBFE6",
"R 	c #BEBEE5",
"S 	c #BCBCE3",
"T 	c #C3C3EA",
"U 	c #C2C2E9",
"V 	c #BDBDE3",
"W 	c #BCBCE1",
"X 	c #C6C6EC",
"Y 	c #C2C2E8",
"Z 	c #C3C3E8",
"` 	c #D0D0F5",
" .	c #CFCFF4",
"..	c #D3D3F7",
"+.	c #9A9BC5",
"@.	c #9FA0CA",
"#.	c #A4A5CF",
"$.	c #9FA0C9",
"%.	c #A5A6D0",
"&.	c #AAABD5",
"*.	c #A6A7D0",
"=.	c #B1B2DC",
"-.	c #ADAED8",
";.	c #ADAED6",
">.	c #AAABD3",
",.	c #A9AAD2",
"'.	c #B4B5DE",
").	c #B0B1D8",
"!.	c #AFB0D7",
"~.	c #BABBE3",
"{.	c #B9BAE2",
"].	c #999BC4",
"^.	c #A4A6D0",
"/.	c #A0A2CB",
"(.	c #A8AAD4",
"_.	c #AFB1DB",
":.	c #A9ABD4",
"<.	c #B5B7DF",
"[.	c #F2F2F2",
"}.	c #B3B3B3",
"|.	c #0D0D0D",
"1.	c #000000",
"2.	c #000000",
"3.	c #000000",
"4.	c #000000",
"5.	c #000000",
"6.	c #000000",
"7.	c #000000",
"8.	c #000000",
"                                                ",
"                                                ",
"          |.. |.. |.. |.. |.. |..               ",
"          . + [.+ [.+ [.+ [.+ . |.[.            ",
"          |.[.^.].(.z -.#.'.. + [.|.            ",
"          . + +.:.$.C %.<.E |.B + . +           ",
"          |.[.&.@._.*.G ;.R L |.B + .           ",
"          . + /.=.A F J M K c 7 |.B |.[.        ",
"          |.[.D ,.{.!.Q 6 X b ^ ] |.B |.        ",
"          . + >.~.).P O g {  .j o > |.. +       ",
"          |.[.S I a N f d ` _ y > u - |.[.      ",
"          . + H U 9 e ~ k n w < , r 4 . +       ",
"          |.[.0 8 l Y 2 * v ; , ; 5 = |.[.      ",
"          . + W / Z ..| 3 - , [ t       +       ",
"          |.[.i ] 1 } ' # ,         .           ",
"          . + : t $ x - ' s   .     |.[.  .     ",
"          |.[.5 [ u - & m p     .   . + .   [.  ",
"          . + ; , r v ( `         . + .   [.    ",
"          |.[., ; ) _ q V   . |.. + . + . |..   ",
"          . + ; % h i ! T     [.+ . + .   [.+ [.",
"          |.}.|.. |.. |.. |.    .   .   .       ",
"            + [.+ [.+ [.+ [.  .   [.|.[.  .     ",
"                                [.  . +     [.  ",
"                                      [.        "};
