/* XPM */
static const char * Save24_xpm[] = {
"24 24 9 1",
" 	c None",
".	c #000000",
"+	c #FFFFFF",
"@	c #C099BB",
"#	c #80667D",
"$	c #FFCCF9",
"%	c #000000",
"&	c #000000",
"*	c #000000",
"                        ",
"                        ",
"   .................    ",
"  .++@+++########+++.   ",
"  .+$@$$$####$$$#+$$.+  ",
"  .+$@$$$####$$$#+$$.+  ",
"  .+$@$$$####$$$#+$$.+  ",
"  .+$@$$$####$$$#+$$.+  ",
"  .+$@$$$####$$$#+$$.+  ",
"  .+$@$$$########+$$.+  ",
"  .+$$+++++++++++$$$.+  ",
"  .+$$$$$$$$$$$$$$$$.+  ",
"  .+$@@@@@@@@@@@@@$$.+  ",
"  .+$@++++++++++++$$.+  ",
"  .+$@$$$$$$$$$$$+$$.+  ",
"  .+$@++++++++++++$$.+  ",
"  .+$@$$$$$$$$$$$+$$.+  ",
"  .+$@++++++++++++$$.+  ",
"  .+$@$$$$$$$$$$$+$$.+  ",
"  .+$@++++++++++++$$.+  ",
"   .................+   ",
"    ++++++++++++++++    ",
"                        ",
"                        "};
