/* XPM */
static const char * History24_xpm[] = {
"24 24 257 2",
"  	c None",
". 	c #000000",
"+ 	c #FFFFFF",
"@ 	c #C0C0C0",
"# 	c #7F7DA6",
"$ 	c #8886B1",
"% 	c #918FB8",
"& 	c #9F9DC6",
"* 	c #B4B2DD",
"= 	c #A9A7CF",
"- 	c #B7B5DD",
"; 	c #6D6C9A",
"> 	c #74739E",
", 	c #7A79A5",
"' 	c #7B7AA6",
") 	c #807FAC",
"! 	c #7F7EA9",
"~ 	c #8382AD",
"{ 	c #8281AC",
"] 	c #7978A0",
"^ 	c #9291C0",
"/ 	c #8887B3",
"( 	c #8584AF",
"_ 	c #9392C0",
": 	c #8D8CB8",
"< 	c #8988B3",
"[ 	c #8786B0",
"} 	c #9796C3",
"| 	c #9594C1",
"1 	c #8F8EB9",
"2 	c #8483AB",
"3 	c #9F9ECD",
"4 	c #9C9BC9",
"5 	c #8B8AB3",
"6 	c #A09FCD",
"7 	c #8F8EB7",
"8 	c #8C8BB3",
"9 	c #8988AF",
"0 	c #8786AD",
"a 	c #9493BD",
"b 	c #8E8DB5",
"c 	c #A4A3D0",
"d 	c #9F9ECA",
"e 	c #9B9AC5",
"f 	c #9695BE",
"g 	c #908FB7",
"h 	c #A5A4D0",
"i 	c #A09FCA",
"j 	c #9F9EC9",
"k 	c #9D9CC6",
"l 	c #A8A7D3",
"m 	c #A5A4CF",
"n 	c #A4A3CE",
"o 	c #A2A1CC",
"p 	c #9C9BC4",
"q 	c #9392B9",
"r 	c #ACABD7",
"s 	c #A6A5D0",
"t 	c #A4A3CD",
"u 	c #9F9EC7",
"v 	c #9B9AC2",
"w 	c #9998BF",
"x 	c #AEADD9",
"y 	c #ADACD7",
"z 	c #ABAAD5",
"A 	c #A9A8D2",
"B 	c #A8A7D1",
"C 	c #9E9DC5",
"D 	c #B1B0DB",
"E 	c #AFAED9",
"F 	c #ADACD6",
"G 	c #ACABD5",
"H 	c #ABAAD4",
"I 	c #A3A2CA",
"J 	c #BDBCE9",
"K 	c #B5B4DF",
"L 	c #B3B2DD",
"M 	c #B1B0DA",
"N 	c #AEADD6",
"O 	c #AAA9D2",
"P 	c #A6A5CD",
"Q 	c #A3A2C9",
"R 	c #B2B1DA",
"S 	c #B1B0D9",
"T 	c #AFAED7",
"U 	c #C6C5F2",
"V 	c #B9B8E2",
"W 	c #B7B6E0",
"X 	c #B1B0D8",
"Y 	c #AFAED6",
"Z 	c #ABAAD1",
"` 	c #BBBAE3",
" .	c #BAB9E2",
"..	c #B6B5DD",
"+.	c #B5B4DC",
"@.	c #B4B3DB",
"#.	c #D1D0FD",
"$.	c #BDBCE5",
"%.	c #BCBBE3",
"&.	c #B4B3DA",
"*.	c #BFBEE6",
"=.	c #B9B8DF",
"-.	c #C4C3EB",
";.	c #C2C1E9",
">.	c #C7C6ED",
",.	c #C5C4EB",
"'.	c #61618F",
").	c #6E6E9C",
"!.	c #70709D",
"~.	c #71719E",
"{.	c #7474A0",
"].	c #7B7BA8",
"^.	c #7979A5",
"/.	c #7676A1",
"(.	c #7979A4",
"_.	c #7878A3",
":.	c #7777A2",
"<.	c #8787B5",
"[.	c #7F7FAB",
"}.	c #7D7DA8",
"|.	c #8989B7",
"1.	c #8080AB",
"2.	c #7F7FAA",
"3.	c #7A7AA3",
"4.	c #8C8CBA",
"5.	c #8B8BB9",
"6.	c #8686B2",
"7.	c #8484B0",
"8.	c #8383AE",
"9.	c #8E8EBC",
"0.	c #8D8DBB",
"a.	c #8C8CB9",
"b.	c #8989B5",
"c.	c #8787B3",
"d.	c #8686B1",
"e.	c #8383AD",
"f.	c #8282AC",
"g.	c #9090BE",
"h.	c #8686B0",
"i.	c #9595C3",
"j.	c #9191BE",
"k.	c #9090BD",
"l.	c #8C8CB7",
"m.	c #8B8BB6",
"n.	c #8A8AB5",
"o.	c #9999C7",
"p.	c #9797C5",
"q.	c #9696C3",
"r.	c #9393C0",
"s.	c #8D8DB8",
"t.	c #8888B1",
"u.	c #8686AF",
"v.	c #8181A8",
"w.	c #9D9DCB",
"x.	c #9C9CCA",
"y.	c #9B9BC9",
"z.	c #9999C6",
"A.	c #8989B2",
"B.	c #9D9DCA",
"C.	c #9999C5",
"D.	c #9797C3",
"E.	c #9292BC",
"F.	c #9191BB",
"G.	c #9090BA",
"H.	c #8989B1",
"I.	c #9F9FCC",
"J.	c #9999C4",
"K.	c #9898C3",
"L.	c #8D8DB5",
"M.	c #8C8CB4",
"N.	c #A2A2CF",
"O.	c #A1A1CE",
"P.	c #9F9FCB",
"Q.	c #9B9BC6",
"R.	c #9999C3",
"S.	c #A1A1CD",
"T.	c #A0A0CB",
"U.	c #9E9EC9",
"V.	c #9D9DC7",
"W.	c #9C9CC6",
"X.	c #9999C2",
"Y.	c #9393BB",
"Z.	c #A6A6D2",
"`.	c #A2A2CD",
" +	c #9E9EC8",
".+	c #9797BF",
"++	c #9696BE",
"@+	c #9595BC",
"#+	c #B7B7E6",
"$+	c #A7A7D2",
"%+	c #A6A6D1",
"&+	c #A3A3CD",
"*+	c #9F9FC8",
"=+	c #ABABD6",
"-+	c #AAAAD5",
";+	c #A9A9D4",
">+	c #A7A7D1",
",+	c #B9B9E7",
"'+	c #AFAFDA",
")+	c #ADADD8",
"!+	c #ABABD5",
"~+	c #AAAAD4",
"{+	c #A9A9D3",
"]+	c #A8A8D1",
"^+	c #B2B2DD",
"/+	c #B1B1DB",
"(+	c #AFAFD9",
"_+	c #C6C6F4",
":+	c #B4B4DE",
"<+	c #ABABD3",
"[+	c #C8C8F6",
"}+	c #C3C3EF",
"|+	c #BFBFEB",
"1+	c #B7B7E1",
"2+	c #B6B6DF",
"3+	c #B5B5DE",
"4+	c #B1B1D9",
"5+	c #CBCBF8",
"6+	c #B8B8E1",
"7+	c #B1B1D8",
"8+	c #CECEFA",
"9+	c #C0C0E8",
"0+	c #BFBFE7",
"a+	c #D4D4FF",
"b+	c #BEBEE5",
"c+	c #BCBCE3",
"d+	c #7B7CA7",
"e+	c #999AC7",
"f+	c #9798C5",
"g+	c #9495C1",
"h+	c #9495BE",
"i+	c #A1A2CE",
"j+	c #9E9FCA",
"k+	c #9B9CC6",
"l+	c #B9BAE8",
"m+	c #C5C6F4",
"n+	c #F2F2F2",
"o+	c #8E8E8E",
"p+	c #0D0D0D",
"q+	c #000000",
"r+	c #000000",
"s+	c #000000",
"t+	c #000000",
"u+	c #000000",
"v+	c #000000",
"w+	c #000000",
"x+	c #000000",
"y+	c #000000",
"z+	c #000000",
"A+	c #000000",
"B+	c #000000",
"C+	c #000000",
"D+	c #000000",
"E+	c #000000",
"F+	c #000000",
"G+	c #000000",
"H+	c #000000",
"                                                ",
"        p+. p+. p+. p+. p+. p+. p+. p+o++       ",
"      p+g.p+<.i.|.p.5.z.0.4 g.I.r.N.D.p+o++     ",
"    p+g._+g.p+#+m+l+[+J 5+|+8+}+#.U a+Q.p+n+    ",
"    . _+'._+. f+a.e+9.x.j.6 | c K.$+k+-+. +     ",
"    p+,+).,+p+4.o.; ].!.[.> ~ :.d.(./ j p+n+    ",
"    . _+'._+. y.9.w._ O.q.h J.l V.!+d x . +     ",
"    p+g._+g.p+k.B.~.) {.8._.6.' b.}.l.`.p+n+    ",
"      p+g.p+. 3 ^ N.D.%+e ;+ +r T.'+t ^+. +     ",
"        p+. p+g+i+/.7.^.c.d+n.2.s.f.F.>+p+n+    ",
"            . c } $+k z j+)+S.M m * B W . +     ",
"            p+C.Z., < }.m.1.1 e.E.[ f G p+n+    ",
"            . {+W.=+P.E &+/+s K O 6+F %.. +     ",
"        p+. p+U.=+! : { G.( a t..+8 X.X p+n+    ",
"      p+g.p+. y i (+n L B 2+H  .N $.4+0+. +     ",
"    p+g._+g.p+o E ~ F.h.h+A.w M.v 7 & +.p+n+    ",
"    . _+'._+. D n :+A 1+G ` T b+R 9+..-.. +     ",
"    p+,+).,+p+s L $ ++5 X.b p % u Y.Q =.p+n+    ",
"    . _+'._+. 3+~+V N c+7+*.&.;...,.=.>.. +     ",
"    p+g._+g.p+R.]+C <+*+Y I S P @.= - Z p+n+    ",
"    n+p+g.p+] u.3.H.# L.v.g 2 q 0 @+9 p+o++     ",
"      n+p+. p+. p+. p+. p+. p+. p+. p+o++       ",
"        n++ n++ n++ n++ n++ n++ n++ n++         ",
"                                                "};
